<?xml version="1.0" encoding="utf-8"?>
<!-- Generator: Adobe Illustrator 20.1.0, SVG Export Plug-In . SVG Version: 6.00 Build 0)  -->
<svg version="1.1" id="Layer_1" xmlns="http://www.w3.org/2000/svg" xmlns:xlink="http://www.w3.org/1999/xlink" x="0px" y="0px"
	 viewBox="0 0 13 13" style="enable-background:new 0 0 13 13;" xml:space="preserve">
<style type="text/css">
	.st0{enable-background:new    ;}
	.st1{fill:#aaaaaa;}
</style>
<g class="st0">
	<path class="st1" d="M12.1,11.9c0,0.3-0.1,0.5-0.3,0.7c-0.2,0.2-0.4,0.3-0.7,0.3c-0.3,0-0.5-0.1-0.7-0.3L8,10.1
		C7.1,10.7,6.2,11,5.1,11c-0.7,0-1.4-0.1-2-0.4S1.9,10,1.5,9.5s-0.8-1-1.1-1.6C0.1,7.2,0,6.6,0,5.9c0-0.7,0.1-1.4,0.4-2
		C0.7,3.3,1,2.7,1.5,2.3s1-0.8,1.6-1.1s1.3-0.4,2-0.4c0.7,0,1.4,0.1,2,0.4c0.6,0.3,1.2,0.6,1.6,1.1s0.8,1,1.1,1.6
		c0.3,0.6,0.4,1.3,0.4,2c0,1.1-0.3,2-0.9,2.9l2.5,2.5C12,11.5,12.1,11.7,12.1,11.9z M7.4,8.2c0.6-0.6,1-1.4,1-2.3
		c0-0.9-0.3-1.7-1-2.3C6.8,3,6,2.6,5.1,2.6c-0.9,0-1.7,0.3-2.3,1s-1,1.4-1,2.3c0,0.9,0.3,1.7,1,2.3c0.6,0.6,1.4,1,2.3,1
		C6,9.1,6.8,8.8,7.4,8.2z"/>
</g>
</svg>
